HIERARCHY
ROOT root
{
	OFFSET 0.000000 0.000000 0.000000
	CHANNELS 6 Xposition Yposition Zposition Zrotation Yrotation Xrotation
	JOINT lhip
	{
		OFFSET 0.058581 -0.082280 -0.017664
		CHANNELS 3 Zrotation Yrotation Xrotation
		JOINT lknee
		{
			OFFSET 0.043451 -0.386469 0.008037
			CHANNELS 3 Zrotation Yrotation Xrotation
			JOINT lankle
			{
				OFFSET -0.014790 -0.426874 -0.037428
				CHANNELS 3 Zrotation Yrotation Xrotation
				JOINT ltoe
				{
					OFFSET 0.041054 -0.060286 0.122042
					CHANNELS 3 Zrotation Yrotation Xrotation
					End Site
					{
						OFFSET 0.000000 0.000000 0.000000
					}
				}
			}
		}
	}
	JOINT rhip
	{
		OFFSET -0.060310 -0.090513 -0.013543
		CHANNELS 3 Zrotation Yrotation Xrotation
		JOINT rknee
		{
			OFFSET -0.043257 -0.383688 -0.004843
			CHANNELS 3 Zrotation Yrotation Xrotation
			JOINT rankle
			{
				OFFSET 0.019056 -0.420046 -0.034562
				CHANNELS 3 Zrotation Yrotation Xrotation
				JOINT rtoe
				{
					OFFSET -0.034840 -0.062106 0.130323
					CHANNELS 3 Zrotation Yrotation Xrotation
					End Site
					{
						OFFSET 0.000000 0.000000 0.000000
					}
				}
			}
		}
	}
	JOINT lowerback
	{
		OFFSET 0.004439 0.124404 -0.038385
		CHANNELS 3 Zrotation Yrotation Xrotation
		JOINT upperback
		{
			OFFSET 0.004488 0.137956 0.026820
			CHANNELS 3 Zrotation Yrotation Xrotation
			JOINT chest
			{
				OFFSET -0.002265 0.056032 0.002855
				CHANNELS 3 Zrotation Yrotation Xrotation
				JOINT lowerneck
				{
					OFFSET -0.013390 0.211636 -0.033468
					CHANNELS 3 Zrotation Yrotation Xrotation
					JOINT upperneck
					{
						OFFSET 0.010113 0.088937 0.050410
						CHANNELS 3 Zrotation Yrotation Xrotation
						End Site
						{
							OFFSET 0.000000 0.000000 0.000000
						}
					}
				}
				JOINT lclavicle
				{
					OFFSET 0.071702 0.114000 -0.018898
					CHANNELS 3 Zrotation Yrotation Xrotation
					JOINT lshoulder
					{
						OFFSET 0.122921 0.045205 -0.019046
						CHANNELS 3 Zrotation Yrotation Xrotation
						JOINT lelbow
						{
							OFFSET 0.255332 -0.015649 -0.022946
							CHANNELS 3 Zrotation Yrotation Xrotation
							JOINT lwrist
							{
								OFFSET 0.265709 0.012698 -0.007375
								CHANNELS 3 Zrotation Yrotation Xrotation
								End Site
								{
									OFFSET 0.000000 0.000000 0.000000
								}
							}
						}
					}
				}
				JOINT rclavicle
				{
					OFFSET -0.082954 0.112472 -0.023707
					CHANNELS 3 Zrotation Yrotation Xrotation
					JOINT rshoulder
					{
						OFFSET -0.113228 0.046853 -0.008472
						CHANNELS 3 Zrotation Yrotation Xrotation
						JOINT relbow
						{
							OFFSET -0.260127 -0.014369 -0.031269
							CHANNELS 3 Zrotation Yrotation Xrotation
							JOINT rwrist
							{
								OFFSET -0.269108 0.006794 -0.006027
								CHANNELS 3 Zrotation Yrotation Xrotation
								End Site
								{
									OFFSET 0.000000 0.000000 0.000000
								}
							}
						}
					}
				}
			}
		}
	}
}
MOTION
Frames: 15
Frame Time: 0.033333
-0.768734 0.286090 1.005499 89.099869 1.501771 87.583221 3.929720 2.472579 -1.482092 -4.933219 0.213834 6.107702 -0.304857 9.736581 -5.819816 0.000000 -0.000000 0.000000 -3.887166 -2.686734 -4.606867 4.143135 -2.150553 10.302980 4.654895 -4.342686 -4.918462 0.000000 -0.000000 0.000000 0.073081 1.073694 8.108472 2.208920 -3.485127 6.661195 0.579928 -1.336978 -1.473355 -0.324540 -0.510245 6.994607 2.480967 -3.152691 9.492230 -22.496344 -1.590892 2.720793 -61.926425 -12.787484 12.534132 7.998723 -16.419116 -3.281119 -3.501964 -6.970872 -3.200841 23.893640 5.476761 3.563048 57.515796 11.215075 13.382024 -11.253679 16.487225 -6.001222 3.636485 4.098347 -2.275969 
-0.768204 0.285704 1.005491 89.118560 1.519939 87.606897 3.963378 2.424220 -1.448879 -4.938218 0.157385 6.055093 -0.361901 9.827836 -5.827739 0.000000 -0.000000 0.000000 -3.848282 -2.682302 -4.528430 4.180450 -2.024727 10.179777 4.683179 -4.501341 -4.908562 0.000000 -0.000000 0.000000 0.125813 1.030268 8.075401 2.100654 -3.439200 6.466656 0.618925 -1.344167 -1.227442 -0.154617 -0.704637 6.594961 2.531585 -3.318270 9.448382 -22.397009 -1.656865 2.688484 -62.107900 -12.822923 12.542396 8.008152 -16.357824 -3.167863 -3.479758 -6.939851 -3.300777 23.839232 5.553815 3.489992 57.606574 11.250093 13.449923 -11.301690 16.338751 -6.065150 3.665633 4.057631 -2.296664 
-0.767622 0.285374 1.005539 89.134515 1.524208 87.618256 3.982560 2.410325 -1.401028 -4.933815 0.160160 6.015662 -0.390632 9.819351 -5.843814 0.000000 -0.000000 0.000000 -3.834076 -2.687995 -4.432507 4.201777 -2.017769 10.062405 4.678360 -4.516065 -4.903790 0.000000 -0.000000 0.000000 0.134664 1.030813 7.997743 2.103066 -3.449801 6.493199 0.612123 -1.350267 -1.209519 -0.054173 -0.826368 6.409769 2.607258 -3.477828 9.305592 -22.416191 -1.687028 2.678170 -62.167750 -12.826781 12.538652 7.980666 -16.228705 -3.173110 -3.497637 -6.943328 -3.289486 23.821268 5.614882 3.448793 57.614687 11.266438 13.454627 -11.304794 16.208001 -6.080194 3.643912 4.046162 -2.306723 
-0.766883 0.284959 1.005504 89.144302 1.528075 87.608879 4.006777 2.400880 -1.346058 -4.928967 0.150241 6.024028 -0.408186 9.824696 -5.882550 0.000000 -0.000000 0.000000 -3.822740 -2.699809 -4.298479 4.234172 -1.997668 9.936167 4.654385 -4.524387 -4.906621 0.000000 -0.000000 0.000000 0.147846 1.032620 7.890612 2.109456 -3.471029 6.564747 0.603058 -1.356244 -1.205176 0.051475 -0.928593 6.263939 2.657647 -3.598564 9.246950 -22.462469 -1.690619 2.703095 -62.178858 -12.782562 12.517578 7.959500 -16.188256 -3.125676 -3.528681 -6.919385 -3.249615 23.823352 5.664037 3.441599 57.583072 11.279532 13.440910 -11.337794 16.202894 -6.131148 3.588581 4.045491 -2.343916 
-0.766486 0.284728 1.005451 89.136696 1.529427 87.598699 4.019319 2.397632 -1.330852 -4.929355 0.145576 6.065947 -0.414224 9.842828 -5.919501 0.000000 -0.000000 0.000000 -3.816155 -2.692126 -4.245454 4.248823 -1.984329 9.908479 4.643577 -4.534295 -4.920918 0.000000 -0.000000 0.000000 0.157738 1.031082 7.839196 2.116895 -3.476094 6.590850 0.596414 -1.360155 -1.199299 0.105735 -0.978779 6.213509 2.659974 -3.637669 9.272465 -22.492620 -1.661920 2.705712 -62.176103 -12.740891 12.511025 7.947646 -16.170429 -3.098779 -3.543225 -6.903014 -3.246425 23.835038 5.657701 3.423821 57.550918 11.290904 13.436059 -11.356366 16.243295 -6.162450 3.575536 4.046679 -2.366482 
-0.766010 0.284417 1.005380 89.112693 1.525317 87.575811 4.027422 2.393020 -1.312941 -4.922583 0.154160 6.145940 -0.417665 9.860280 -5.973209 0.000000 -0.000000 0.000000 -3.808092 -2.679135 -4.197351 4.261340 -1.961437 9.921536 4.627290 -4.543660 -4.967094 0.000000 -0.000000 0.000000 0.168755 1.031794 7.795962 2.125123 -3.473451 6.597734 0.584916 -1.365111 -1.183952 0.150021 -1.019614 6.220330 2.629975 -3.647690 9.331689 -22.529808 -1.588292 2.686903 -62.164262 -12.679830 12.514019 7.940066 -16.134548 -3.039499 -3.583245 -6.866436 -3.217598 23.861427 5.603708 3.368271 57.511020 11.317781 13.430209 -11.366222 16.291381 -6.185086 3.602253 4.037387 -2.366861 
-0.765566 0.284071 1.005302 89.087888 1.519206 87.544570 4.035388 2.381672 -1.285561 -4.912571 0.169906 6.224644 -0.424282 9.875585 -6.034573 0.000000 -0.000000 0.000000 -3.799624 -2.670253 -4.161334 4.268383 -1.949206 9.972881 4.609962 -4.538463 -5.015650 0.000000 -0.000000 0.000000 0.167047 1.040723 7.735499 2.139196 -3.472538 6.656720 0.575631 -1.361737 -1.179348 0.183399 -1.016471 6.269537 2.610341 -3.678078 9.367708 -22.545003 -1.532314 2.672216 -62.167011 -12.634609 12.506244 7.952748 -16.081747 -3.021139 -3.598229 -6.866169 -3.165917 23.890596 5.571595 3.327904 57.480571 11.362747 13.402999 -11.383687 16.295076 -6.224398 3.609565 4.040316 -2.352419 
-0.765151 0.283715 1.005230 89.082201 1.509400 87.506145 4.045544 2.374420 -1.257547 -4.915099 0.170456 6.306658 -0.430661 9.893273 -6.091951 0.000000 -0.000000 0.000000 -3.791878 -2.650457 -4.119642 4.270631 -1.946061 10.027001 4.598279 -4.548458 -5.070239 0.000000 -0.000000 0.000000 0.153520 1.045911 7.690373 2.150145 -3.467072 6.714827 0.575171 -1.355138 -1.180335 0.216506 -0.990783 6.322818 2.619492 -3.691604 9.436823 -22.549031 -1.494485 2.683129 -62.166175 -12.601566 12.485887 7.959956 -16.022671 -3.006625 -3.599767 -6.867628 -3.131218 23.920954 5.562874 3.320626 57.459773 11.401293 13.373099 -11.397330 16.263253 -6.256380 3.600157 4.045631 -2.342100 
-0.764849 0.283374 1.005169 89.092665 1.502428 87.477666 4.054958 2.355350 -1.252453 -4.912129 0.166941 6.389589 -0.430252 9.906198 -6.137177 0.000000 -0.000000 0.000000 -3.781731 -2.642950 -4.094645 4.273705 -1.946478 10.081212 4.580612 -4.560484 -5.121567 0.000000 -0.000000 0.000000 0.148857 1.054551 7.669532 2.157149 -3.462180 6.741251 0.575178 -1.348497 -1.184865 0.236107 -0.985685 6.366569 2.613706 -3.689884 9.525761 -22.553855 -1.456412 2.693746 -62.152044 -12.582653 12.465173 7.953415 -15.950341 -2.977480 -3.600063 -6.870914 -3.108654 23.941434 5.541678 3.325733 57.459465 11.431633 13.359757 -11.397426 16.223933 -6.258660 3.584873 4.058730 -2.332971 
-0.764538 0.282964 1.005133 89.116593 1.498637 87.447641 4.067015 2.341954 -1.250549 -4.904281 0.145748 6.477961 -0.421652 9.924407 -6.188606 0.000000 -0.000000 0.000000 -3.761176 -2.640139 -4.066024 4.274210 -1.945730 10.133788 4.551131 -4.580550 -5.178166 0.000000 -0.000000 0.000000 0.145661 1.066939 7.657737 2.168066 -3.454180 6.767860 0.576074 -1.340156 -1.190935 0.241207 -0.985041 6.414886 2.593651 -3.665839 9.603439 -22.568134 -1.405507 2.697851 -62.128999 -12.558096 12.439080 7.946446 -15.895081 -2.962544 -3.609587 -6.864492 -3.099614 23.972533 5.497743 3.321901 57.461661 11.442312 13.349016 -11.381463 16.200407 -6.243963 3.594872 4.072704 -2.313732 
-0.764378 0.282648 1.005092 89.150588 1.494727 87.434671 4.078298 2.320702 -1.272391 -4.901258 0.138084 6.551266 -0.416754 9.927941 -6.215949 0.000000 -0.000000 0.000000 -3.746537 -2.638072 -4.057117 4.276606 -1.949310 10.175023 4.525547 -4.603948 -5.219517 0.000000 -0.000000 0.000000 0.142121 1.075735 7.649502 2.172365 -3.449448 6.789764 0.576807 -1.346173 -1.180692 0.250558 -0.967496 6.433075 2.560538 -3.633049 9.670321 -22.583028 -1.373799 2.694614 -62.103707 -12.547600 12.421103 7.955913 -15.871696 -2.973122 -3.620209 -6.854457 -3.110904 24.005831 5.474290 3.314440 57.468680 11.439363 13.361351 -11.374934 16.195514 -6.238673 3.595526 4.077636 -2.299893 
-0.764315 0.282379 1.005044 89.199406 1.490644 87.430922 4.090232 2.300340 -1.299243 -4.903200 0.111604 6.605202 -0.421671 9.927837 -6.227390 0.000000 -0.000000 0.000000 -3.738091 -2.639016 -4.058392 4.282601 -1.967408 10.212777 4.501936 -4.618750 -5.257041 0.000000 -0.000000 0.000000 0.146990 1.075150 7.660133 2.167111 -3.446144 6.787388 0.571043 -1.349917 -1.172456 0.247051 -0.971250 6.448676 2.523970 -3.630715 9.744419 -22.599238 -1.347483 2.692499 -62.073551 -12.543377 12.412326 7.966628 -15.864390 -2.977288 -3.607398 -6.855666 -3.123195 24.039488 5.450407 3.310835 57.495475 11.437440 13.371467 -11.369167 16.176938 -6.218944 3.595197 4.079080 -2.300159 
-0.764353 0.282141 1.005006 89.240703 1.482086 87.427282 4.095050 2.292715 -1.314084 -4.902825 0.087896 6.628470 -0.428504 9.923889 -6.229966 0.000000 -0.000000 0.000000 -3.734016 -2.636775 -4.076423 4.284744 -1.992755 10.265641 4.492254 -4.634915 -5.292373 0.000000 -0.000000 0.000000 0.145025 1.075064 7.682450 2.159807 -3.436487 6.778900 0.565590 -1.349924 -1.157671 0.230854 -0.951945 6.468284 2.492850 -3.638959 9.821334 -22.597614 -1.326285 2.690253 -62.064749 -12.558421 12.405754 7.968694 -15.865643 -2.978928 -3.599389 -6.856205 -3.136969 24.068715 5.426501 3.311304 57.526996 11.443988 13.378524 -11.370976 16.167197 -6.209871 3.601074 4.070213 -2.309464 
-0.764484 0.281929 1.004967 89.278543 1.465610 87.437153 4.089640 2.283822 -1.344546 -4.903022 0.066775 6.642901 -0.430275 9.921494 -6.221607 0.000000 -0.000000 0.000000 -3.734521 -2.641418 -4.135111 4.277813 -2.011538 10.349372 4.490385 -4.652249 -5.324735 0.000000 -0.000000 0.000000 0.134954 1.077011 7.710789 2.152090 -3.426304 6.769475 0.562504 -1.349888 -1.151552 0.209213 -0.903265 6.489459 2.474074 -3.618096 9.895982 -22.593554 -1.315518 2.681655 -62.068570 -12.571177 12.414510 7.978146 -15.867130 -3.004781 -3.576074 -6.857348 -3.145251 24.094305 5.414679 3.310755 57.556119 11.440753 13.399282 -11.378998 16.165920 -6.216734 3.601448 4.075457 -2.311561 
-0.764668 0.281745 1.004923 89.323918 1.451072 87.443876 4.086695 2.267534 -1.385423 -4.905745 0.048079 6.671306 -0.432968 9.914411 -6.212292 0.000000 -0.000000 0.000000 -3.733001 -2.638850 -4.206213 4.268266 -2.034183 10.458003 4.484551 -4.678388 -5.365376 0.000000 -0.000000 0.000000 0.127736 1.073054 7.748567 2.145713 -3.421034 6.763587 0.559648 -1.352527 -1.136204 0.192006 -0.841782 6.520087 2.447080 -3.564620 9.969988 -22.588309 -1.317097 2.661707 -62.083079 -12.587728 12.441430 7.984153 -15.863972 -3.031760 -3.558525 -6.854189 -3.161241 24.113814 5.419039 3.302210 57.578755 11.444598 13.427927 -11.388130 16.168680 -6.242410 3.596333 4.083050 -2.314397 
